<?xml version="1.0" encoding="iso-8859-1"?>
<!-- Uploaded to: SVG Repo, www.svgrepo.com, Generator: SVG Repo Mixer Tools -->
<svg fill="white" height="800px" width="800px" version="1.1" id="Layer_1" xmlns="http://www.w3.org/2000/svg" xmlns:xlink="http://www.w3.org/1999/xlink"
	 viewBox="0 0 512 512" xml:space="preserve">
<g>
	<g>
		<path d="M508,0H4C1.792,0,0,1.792,0,4v504c0,2.208,1.792,4,4,4h504c2.208,0,4-1.792,4-4V4C512,1.792,510.208,0,508,0z M504,504H8
			V8h496V504z"/>
	</g>
</g>
<g>
	<g>
		<path d="M444,64H68c-2.208,0-4,1.792-4,4v376c0,2.208,1.792,4,4,4h376c2.208,0,4-1.792,4-4V68C448,65.792,446.208,64,444,64z
			 M440,440H72V72h368V440z"/>
	</g>
</g>
<g>
	<g>
		<path d="M70.88,65.236L26.952,21.308c-1.564-1.564-4.092-1.564-5.656,0c-1.564,1.564-1.564,4.092,0,5.656l43.928,43.928
			c0.78,0.78,1.804,1.172,2.828,1.172s2.044-0.392,2.828-1.172C72.444,69.328,72.444,66.8,70.88,65.236z"/>
	</g>
</g>
<g>
	<g>
		<path d="M490.804,485.16l-43.924-43.924c-1.564-1.564-4.092-1.564-5.656,0c-1.564,1.564-1.564,4.092,0,5.656l43.924,43.924
			c0.78,0.78,1.804,1.172,2.828,1.172s2.048-0.392,2.828-1.172C492.368,489.252,492.368,486.724,490.804,485.16z"/>
	</g>
</g>
<g>
	<g>
		<path d="M490.804,21.312c-1.564-1.564-4.092-1.564-5.656,0l-43.924,43.924c-1.564,1.564-1.564,4.092,0,5.656
			c0.78,0.78,1.804,1.172,2.828,1.172s2.044-0.392,2.828-1.172l43.924-43.924C492.368,25.404,492.368,22.876,490.804,21.312z"/>
	</g>
</g>
<g>
	<g>
		<path d="M70.876,441.236c-1.564-1.564-4.092-1.564-5.656,0L21.296,485.16c-1.564,1.564-1.564,4.092,0,5.656
			c0.78,0.78,1.804,1.172,2.828,1.172c1.024,0,2.048-0.392,2.828-1.172l43.924-43.924C72.44,445.328,72.44,442.8,70.876,441.236z"/>
	</g>
</g>
<g>
	<g>
		<path d="M444,192H68c-2.208,0-4,1.792-4,4s1.792,4,4,4h376c2.208,0,4-1.792,4-4S446.208,192,444,192z"/>
	</g>
</g>
<g>
	<g>
		<path d="M444,252H68c-2.208,0-4,1.792-4,4s1.792,4,4,4h376c2.208,0,4-1.792,4-4S446.208,252,444,252z"/>
	</g>
</g>
<g>
	<g>
		<path d="M444,440H68c-2.208,0-4,1.792-4,4s1.792,4,4,4h376c2.208,0,4-1.792,4-4S446.208,440,444,440z"/>
	</g>
</g>
<g>
	<g>
		<path d="M444,312H68c-2.208,0-4,1.792-4,4s1.792,4,4,4h376c2.208,0,4-1.792,4-4S446.208,312,444,312z"/>
	</g>
</g>
<g>
	<g>
		<path d="M444,372H68c-2.208,0-4,1.792-4,4s1.792,4,4,4h376c2.208,0,4-1.792,4-4S446.208,372,444,372z"/>
	</g>
</g>
<g>
	<g>
		<path d="M444,132H68c-2.208,0-4,1.792-4,4s1.792,4,4,4h376c2.208,0,4-1.792,4-4S446.208,132,444,132z"/>
	</g>
</g>
<g>
	<g>
		<path d="M444,64H68c-2.208,0-4,1.792-4,4s1.792,4,4,4h376c2.208,0,4-1.792,4-4S446.208,64,444,64z"/>
	</g>
</g>
</svg>