<?xml version="1.0" ?>
<!DOCTYPE svg  PUBLIC '-//W3C//DTD SVG 1.1//EN'  'http://www.w3.org/Graphics/SVG/1.1/DTD/svg11.dtd'>
<!-- Uploaded to: SVG Repo, www.svgrepo.com, Generator: SVG Repo Mixer Tools -->
<svg fill="#000000" width="800px" height="800px" viewBox="0 0 512 512" enable-background="new 0 0 512 512" id="Domestic_x5F_EMS" version="1.1" xml:space="preserve" xmlns="http://www.w3.org/2000/svg" xmlns:xlink="http://www.w3.org/1999/xlink">
<g>
<g>
<rect height="10" width="13.813" x="98.034" y="152.55"/>
<path d="M477.099,357.38c3.89-14.63,5.86-29.79,5.86-45.06c0-42.801-15.67-83.13-42.641-114.25c-2.23-2.59-4.561-5.12-6.96-7.58    c-15.31-15.71-33.7-28.65-54.521-37.83l-4.029,9.15c18.6,8.2,35.13,19.6,49.09,33.38c2.3,2.26,4.52,4.59,6.68,6.98    c-16.25,7.92-35.899,14.07-57.539,18.16c-0.74-2.98-1.521-5.91-2.33-8.77c-5.011-17.63-11.36-32.99-18.891-45.15    c16.21-23.66,31.85-51.32,31.85-69.99c0-39.22-31.91-71.13-71.129-71.13c-39.221,0-71.13,31.91-71.13,71.13    c0,13.2,7.82,30.89,18.13,48.49c-6.99,2.04-13.781,4.49-20.341,7.33h-114.63v10h95.02c-13.24,7.85-25.28,17.36-35.86,28.22    c-2.4,2.46-4.73,4.99-6.97,7.59c-11.13,12.83-20.35,27.28-27.34,42.87h-79.9v10h75.79c-2.3,6.11-4.26,12.391-5.87,18.78h-36.52v10    h34.31c-2.01,10.61-3.06,21.51-3.06,32.62c0,17.72,2.67,34.84,7.61,50.97h-80.26v10h83.66c2.73,7.28,5.93,14.33,9.56,21.12h-35.16    v10h40.96c5.42,8.67,11.58,16.84,18.39,24.41c0.98,1.1,1.97,2.17,2.99,3.24c29.63,31.33,70.72,51.72,116.51,54.35    c2,0.12,4.01,0.21,6.03,0.25c1.369,0.029,2.739,0.05,4.109,0.05c0.85,0,1.7-0.01,2.58-0.021c0.37,0.011,0.74,0.021,1.1,0.021    c0.791,0,1.601-0.04,2.431-0.101l0.72-0.02l0.061-0.02c46.439-1.801,89.16-21.91,119.899-54.43c0.84-0.881,1.67-1.781,2.479-2.681    c14-15.44,25.351-33.55,33.23-53.71l-9.311-3.641c-5.739,14.69-13.449,28.211-22.75,40.32c-17.56-9.18-39.18-16.26-63.149-20.859    c4.74-23.25,7.34-49.08,7.55-75.801h89.5c-0.279,13.23-2.1,26.351-5.479,39.03L477.099,357.38z M373.369,305.77h-55.83v-69.72    c16.449-0.39,32.51-1.83,47.779-4.25C370.139,254.23,372.959,279.53,373.369,305.77z M317.539,226.05V211.2    c3.25-3.82,12.159-14.47,22.439-28.24c1.811-2.43,3.66-4.96,5.529-7.56c7.051,12.5,12.99,28.44,17.551,46.65    C348.519,224.31,333.219,225.67,317.539,226.05z M307.539,226.15c-15.891-0.04-31.471-1.1-46.341-3.07    c0.74-2.98,1.511-5.91,2.32-8.77c4.29-15.21,9.59-28.6,15.729-39.37c12.61,17.58,24.44,31.73,28.291,36.26V226.15z     M258.969,232.85c15.59,2.13,31.93,3.26,48.57,3.3v69.62h-56.391C251.549,279.939,254.289,255.02,258.969,232.85z M307.539,315.77    v32.34h10v-32.34h55.869c-0.21,26.181-2.76,51.42-7.39,74.061c-18.22-2.92-37.59-4.45-57.45-4.45    c-17.279,0-34.189,1.16-50.289,3.39c-4.49-22.35-6.971-47.199-7.171-73H307.539z M251.409,96.42c0-33.71,27.429-61.13,61.13-61.13    c33.709,0,61.129,27.42,61.129,61.13c0,17.26-16.319,44.79-32.6,67.95c-2.12,3.01-4.24,5.96-6.32,8.79    c-9.14,12.45-17.569,22.85-22.219,28.45C292.469,177.63,251.409,123.03,251.409,96.42z M264.948,153.79    c1.101,1.73,2.21,3.46,3.331,5.17c1.539,2.37,3.109,4.71,4.689,7.01c-9.04,14.47-16.43,33.53-21.8,55.61    c-24.48-4.04-46.66-10.65-64.68-19.45c2.15-2.39,4.38-4.72,6.67-6.97C212.688,175.89,237.168,161.41,264.948,153.79z     M179.838,209.99c17.01,8.62,37.7,15.33,60.53,19.79c2.83,0.56,5.69,1.08,8.59,1.56c-4.71,22.59-7.43,47.9-7.81,74.43h-96.84    C145.719,270,158.628,236.71,179.838,209.99z M144.219,315.77h96.89c0.2,26.271,2.71,51.621,7.28,74.511    c-3.08,0.52-6.12,1.079-9.12,1.68c-23.12,4.601-43.99,11.521-61.04,20.42C157.539,385.49,144.969,352.061,144.219,315.77z     M191.188,427.28c-2.24-2.271-4.39-4.601-6.48-6.99c18.18-9.17,40.76-16.06,65.79-20.24c2.75,11.82,6.08,22.88,9.95,32.94    c7.261,18.85,16.04,33.119,25.79,42.199c-3.89-0.529-7.73-1.199-11.529-2C242.369,466.391,213.489,450.061,191.188,427.28z     M269.789,429.391c-3.631-9.42-6.76-19.771-9.371-30.83c15.4-2.09,31.59-3.181,48.15-3.181c19.141,0,37.78,1.45,55.28,4.21    c-2.45,10.2-5.341,19.78-8.65,28.57c-11.01,29.23-25.84,46.859-40.69,48.439h-0.1l-0.72,0.01l-0.069,0.021    c-0.801,0.021-1.59,0.04-2.361,0.06C296.198,475.99,281.088,458.77,269.789,429.391z M339.758,473.73    c9.381-9.351,17.83-23.561,24.801-42.041c2.55-6.77,4.859-13.979,6.91-21.569c0.789-2.88,1.529-5.82,2.24-8.8    c22.27,4.25,42.359,10.699,58.819,19.02c-2.09,2.4-4.25,4.74-6.479,7C402.889,451.01,372.879,467.37,339.758,473.73z     M383.369,305.77c-0.391-27.039-3.211-52.789-8.091-75.699c23.39-4.46,44.58-11.25,61.95-20.04    c21.35,26.88,34.189,60.25,35.6,95.739H383.369z"/>
<rect height="10" width="20.202" x="30.707" y="240.917"/>
<rect height="10" width="16.656" x="29.042" y="363.156"/>
<rect height="10" width="16.656" x="87.867" y="394.408"/>
<path d="M313.709,57.31c-21.471,0-38.94,17.46-38.94,38.93c0,21.47,17.47,38.93,38.94,38.93c21.459,0,38.93-17.46,38.93-38.93    C352.639,74.77,335.168,57.31,313.709,57.31z M313.709,125.17c-15.961,0-28.94-12.98-28.94-28.93    c0-15.95,12.979-28.93,28.94-28.93c15.949,0,28.93,12.98,28.93,28.93C342.639,112.19,329.658,125.17,313.709,125.17z"/>
</g>
</g>
</svg>