<?xml version="1.0" encoding="iso-8859-1"?>
<!-- Uploaded to: SVG Repo, www.svgrepo.com, Generator: SVG Repo Mixer Tools -->
<svg fill="#000000" height="800px" width="800px" version="1.1" id="Layer_1" xmlns="http://www.w3.org/2000/svg" xmlns:xlink="http://www.w3.org/1999/xlink" 
	 viewBox="0 0 512 512" xml:space="preserve">
<g>
	<g>
		<g>
			<path d="M115.97,229.513h13.815c0.309-1.201,0.786-2.33,1.218-3.478c0.212-0.565,0.353-1.156,0.591-1.704
				c0.847-1.942,1.845-3.796,3.01-5.544c0.265-0.388,0.591-0.724,0.865-1.103c0.962-1.333,1.986-2.604,3.125-3.787
				c0.521-0.539,1.086-1.006,1.633-1.51c1.015-0.927,2.048-1.81,3.169-2.613c0.653-0.477,1.324-0.909,2.013-1.333
				c1.139-0.715,2.313-1.342,3.531-1.924c0.733-0.344,1.448-0.689,2.198-0.98c1.351-0.53,2.745-0.936,4.175-1.307
				c0.689-0.168,1.342-0.397,2.039-0.53c2.154-0.406,4.352-0.671,6.621-0.671c2.269,0,4.467,0.265,6.621,0.671
				c0.697,0.132,1.351,0.362,2.039,0.53c1.43,0.371,2.825,0.777,4.175,1.307c0.75,0.291,1.465,0.636,2.198,0.98
				c1.218,0.583,2.392,1.209,3.531,1.924c0.689,0.424,1.359,0.856,2.013,1.333c1.121,0.803,2.154,1.686,3.169,2.613
				c0.547,0.503,1.112,0.971,1.633,1.51c1.139,1.183,2.163,2.454,3.125,3.787c0.274,0.38,0.6,0.715,0.865,1.103
				c1.165,1.748,2.163,3.602,3.01,5.544c0.238,0.547,0.38,1.139,0.591,1.704c0.433,1.148,0.909,2.278,1.218,3.478h72.863
				c0.309-1.201,0.786-2.33,1.218-3.478c0.212-0.565,0.353-1.156,0.591-1.704c0.847-1.942,1.845-3.796,3.01-5.544
				c0.265-0.388,0.591-0.724,0.865-1.103c0.962-1.333,1.986-2.604,3.125-3.787c0.521-0.539,1.086-1.006,1.633-1.51
				c1.015-0.927,2.048-1.81,3.169-2.613c0.653-0.477,1.324-0.909,2.013-1.333c1.139-0.715,2.313-1.342,3.531-1.924
				c0.733-0.344,1.448-0.689,2.198-0.98c1.351-0.53,2.745-0.936,4.175-1.307c0.689-0.168,1.342-0.397,2.039-0.53
				c2.154-0.406,4.352-0.671,6.621-0.671c2.269,0,4.467,0.265,6.621,0.671c0.697,0.132,1.351,0.362,2.039,0.53
				c1.43,0.371,2.825,0.777,4.175,1.307c0.75,0.291,1.465,0.636,2.198,0.98c1.218,0.583,2.392,1.209,3.531,1.924
				c0.689,0.424,1.359,0.856,2.013,1.333c1.121,0.803,2.154,1.686,3.169,2.613c0.547,0.503,1.112,0.971,1.633,1.51
				c1.139,1.183,2.163,2.454,3.125,3.787c0.274,0.38,0.6,0.715,0.865,1.103c1.165,1.748,2.163,3.602,3.01,5.544
				c0.238,0.547,0.38,1.139,0.591,1.704c0.433,1.148,0.909,2.278,1.218,3.478h13.815c2.737,0,4.961-2.216,4.961-4.952v-34.225
				c0-2.737-2.224-4.961-4.961-4.961h-21.522H137.491H115.97c-2.737,0-4.961,2.225-4.961,4.961v34.225
				C111.009,227.297,113.233,229.513,115.97,229.513z"/>
			<path d="M286.466,128.405c-2.154-3.019-5.667-4.82-9.375-4.82h-33.668v44.138h71.124L286.466,128.405z"/>
			<path d="M225.767,123.586h-33.66c-3.716,0-7.23,1.801-9.384,4.82l-28.081,39.318h71.124V123.586z"/>
			<path d="M163.974,220.69c-9.737,0-17.655,7.918-17.655,17.655c0,9.737,7.918,17.655,17.655,17.655s17.655-7.918,17.655-17.655
				C181.629,228.608,173.711,220.69,163.974,220.69z"/>
			<path d="M305.216,220.69c-9.737,0-17.655,7.918-17.655,17.655c0,9.737,7.918,17.655,17.655,17.655
				c9.737,0,17.655-7.918,17.655-17.655C322.871,228.608,314.952,220.69,305.216,220.69z"/>
			<polygon points="296.388,0 172.802,0 172.802,44.138 172.802,52.966 296.379,52.966 			"/>
			<path d="M240.668,476.69H66.871c-9.737,0-17.655-7.918-17.655-17.655V52.966c0-9.737,7.918-17.655,17.655-17.655h88.276V0H40.388
				C25.787,0,13.905,11.882,13.905,26.483v459.034c0,14.601,11.882,26.483,26.483,26.483h222.835
				C252.647,502.819,244.694,490.611,240.668,476.69z"/>
			<path d="M419.974,52.966v278.14c13.48,4.476,25.538,12.156,35.31,22.237V26.483C455.284,11.882,443.403,0,428.802,0H314.043
				v35.31h88.276C412.056,35.31,419.974,43.229,419.974,52.966z"/>
			<path d="M66.872,459.033h170.964c-0.044-1.059-0.15-2.092-0.15-3.16c0-23.861,11.573-46.336,30.596-60.116
				c10.072-23.676,33.51-39.724,59.162-39.777c16.64-18.538,40.316-29.361,65.121-29.361c3.302,0,6.541,0.247,9.755,0.609V52.964
				h-88.276c0,9.737-7.927,17.655-17.655,17.655H172.803c-9.737,0-17.655-7.918-17.655-17.655H66.872V459.033z M93.354,190.339
				c0-12.465,10.143-22.616,22.607-22.616h16.993l35.407-49.576c5.464-7.645,14.336-12.217,23.737-12.217h84.983
				c9.41,0,18.282,4.573,23.746,12.217l35.407,49.576h16.984c12.473,0,22.616,10.152,22.616,22.616v34.225
				c0,12.465-10.143,22.607-22.616,22.607h-13.948c-3.946,15.192-17.646,26.483-34.057,26.483s-30.111-11.29-34.057-26.483h-73.128
				c-3.946,15.192-17.646,26.483-34.057,26.483c-16.41,0-30.111-11.29-34.057-26.483h-13.956c-12.465,0-22.607-10.143-22.607-22.607
				V190.339z M102.182,317.791h132.414c4.882,0,8.828,3.946,8.828,8.828c0,4.882-3.946,8.828-8.828,8.828H102.182
				c-4.882,0-8.828-3.946-8.828-8.828C93.354,321.737,97.3,317.791,102.182,317.791z M102.182,361.929h132.414
				c4.882,0,8.828,3.946,8.828,8.828c0,4.882-3.946,8.828-8.828,8.828H102.182c-4.882,0-8.828-3.946-8.828-8.828
				C93.354,365.875,97.3,361.929,102.182,361.929z M102.182,406.067h132.414c4.882,0,8.828,3.946,8.828,8.828
				s-3.946,8.828-8.828,8.828H102.182c-4.882,0-8.828-3.946-8.828-8.828S97.3,406.067,102.182,406.067z"/>
			<path d="M462.776,409c-3.787-36.255-34.004-64.724-70.206-64.724c-22.652,0-44.006,11.361-57.203,30.031
				c-2.586-0.441-5.191-0.671-7.795-0.671c-20.489,0-38.674,13.921-44.729,33.66c-16.834,9.975-27.507,28.61-27.507,48.578
				c0,30.941,24.585,56.126,54.802,56.126h95.108c0.556,0,1.095-0.035,1.51-0.071c0.547,0.035,1.095,0.071,1.668,0.071h38.038
				c28.469,0,51.633-23.72,51.633-52.868C498.095,436.18,483.6,416.115,462.776,409z"/>
		</g>
	</g>
</g>
</svg>